<?xml version="1.0" encoding="UTF-8" standalone="no"?>
<!-- Created with Inkscape (http://www.inkscape.org/) -->

<svg
   xmlns:dc="http://purl.org/dc/elements/1.1/"
   xmlns:cc="http://creativecommons.org/ns#"
   xmlns:rdf="http://www.w3.org/1999/02/22-rdf-syntax-ns#"
   xmlns:svg="http://www.w3.org/2000/svg"
   xmlns="http://www.w3.org/2000/svg"
   xmlns:sodipodi="http://sodipodi.sourceforge.net/DTD/sodipodi-0.dtd"
   xmlns:inkscape="http://www.inkscape.org/namespaces/inkscape"
   width="267.17368mm"
   height="62.039669mm"
   viewBox="0 0 946.67838 219.8256"
   id="svg4159"
   version="1.1"
   inkscape:version="0.92.1 r15371"
   sodipodi:docname="system.svg">
  <defs
     id="defs4161" />
  <sodipodi:namedview
     id="base"
     pagecolor="#ffffff"
     bordercolor="#666666"
     borderopacity="1.0"
     inkscape:pageopacity="0.0"
     inkscape:pageshadow="2"
     inkscape:zoom="2"
     inkscape:cx="968.65862"
     inkscape:cy="121.31782"
     inkscape:document-units="px"
     inkscape:current-layer="g4838"
     showgrid="false"
     fit-margin-top="0"
     fit-margin-left="0"
     fit-margin-right="0"
     fit-margin-bottom="0"
     inkscape:window-width="1680"
     inkscape:window-height="988"
     inkscape:window-x="-8"
     inkscape:window-y="-8"
     inkscape:window-maximized="1" />
  <metadata
     id="metadata4164">
    <rdf:RDF>
      <cc:Work
         rdf:about="">
        <dc:format>image/svg+xml</dc:format>
        <dc:type
           rdf:resource="http://purl.org/dc/dcmitype/StillImage" />
        <dc:title />
      </cc:Work>
    </rdf:RDF>
  </metadata>
  <g
     inkscape:label="Layer 1"
     inkscape:groupmode="layer"
     id="layer1"
     transform="translate(46.044646,-284.8401)">
    <g
       id="g4838"
       transform="translate(-30.053731,16.784024)">
      <path
         style="fill:#f4c224"
         d="M 51.297777,487.03818 C 34.751478,484.43347 25.086523,480.43327 17.107918,472.88744 10.442808,466.58385 9.5887,464.99355 2.439972,445.57648 -4.544041,426.6068 -5.098736,425.42901 -7.919029,423.58109 c -3.022856,-1.98066 -4.892303,-5.70506 -6.924527,-13.79538 -1.55028,-6.1717 -1.543853,-6.88895 0.106514,-11.88859 2.80198,-8.48834 10.225447,-15.71135 21.451329,-20.87207 8.268913,-3.80135 11.408963,-4.91094 19.030193,-6.72468 9.118213,-2.17 20.334367,-4.10836 25.969807,-4.48807 l 3.5,-0.23582 -0.0334,-8 c -0.0184,-4.4 -0.39449,-11.91635 -0.83586,-16.70299 l -0.80248,-8.703 -5.22368,-2.94806 c -10.785495,-6.08698 -16.952888,-16.66836 -16.976382,-29.1264 -0.01913,-10.14654 2.710514,-16.26606 10.452966,-23.43421 7.610016,-7.04553 13.230646,-8.98433 24.285926,-8.37726 9.93013,0.54529 15.15557,2.93657 21.87535,10.01065 5.12012,5.39009 8.75756,14.4369 8.75756,21.78127 0,11.28601 -7.24391,23.29873 -17.56062,29.12112 l -5.25275,2.96447 -0.70861,10.70721 c -0.38974,5.88896 -0.76923,13.4072 -0.84332,16.7072 l -0.1347,6 4,0.2325 c 10.80974,0.62832 32.814063,5.39503 38.710163,8.38564 2.04059,1.03502 4.20274,1.88186 4.80478,1.88186 2.43572,0 14.34129,8.12311 18.00372,12.28385 4.02818,4.57626 7.30101,12.23386 7.1878,16.81765 -0.15066,6.10021 -3.31591,13.77457 -7.26024,17.60295 -3.35781,3.25909 -5.00495,6.60114 -10.99774,22.31437 -3.87665,10.16465 -8.26346,20.24919 -9.74846,22.41008 -3.51659,5.11712 -12.78129,11.89659 -19.894913,14.55813 -12.6553,4.73496 -33.10807,6.96029 -45.72162,4.97467 z m 630.955273,-15.5658 c -1.4467,-1.4467 -1.57637,-8.37258 -1.32143,-70.58102 0.27438,-66.95358 0.33961,-69.01854 2.2238,-70.3959 2.71644,-1.98574 17.47502,-1.94964 20.11774,0.0492 2.70528,2.04617 4.40591,1.8951 10.60277,-0.94192 11.88801,-5.44251 28.62338,-5.5182 40.27879,-0.18218 10.73232,4.91342 23.04632,19.01675 26.57275,30.434 4.44532,14.39227 3.26283,33.59181 -2.85608,46.37287 -3.64238,7.60813 -11.3139,16.46713 -17.8769,20.6441 -11.28627,7.18304 -28.57208,8.73264 -42.2802,3.79023 -12.63507,-4.55552 -11.42291,-6.44476 -12,18.70286 -0.41069,17.89616 -0.76794,21.95724 -2,22.73469 -0.825,0.52059 -5.63036,0.95342 -10.67857,0.96184 -7.10507,0.0119 -9.54095,-0.34707 -10.78267,-1.58879 z m 58.46124,-63.56437 c 5.43536,-2.3278 12.40342,-8.87397 15.25518,-14.33153 1.44493,-2.76524 2.22841,-6.51847 2.53808,-12.15859 0.41731,-7.60054 0.22183,-8.64916 -2.85784,-15.33059 -4.88148,-10.59052 -13.00173,-16.82287 -23.2025,-17.80813 -6.47389,-0.62529 -16.58629,4.23174 -20.73527,9.95925 -11.93384,16.47419 -7.3127,40.3459 9.50235,49.08684 7.71951,4.01283 11.24486,4.11818 19.5,0.58275 z m -384.7671,24.05733 c -17.43656,-2.90438 -33.37573,-20.16011 -36.38362,-39.38886 -1.54302,-9.8642 -0.52608,-27.60139 1.98958,-34.70162 4.7344,-13.3624 12.2451,-22.02688 23.93083,-27.60702 l 7.73031,-3.69136 16,0 c 15.88877,0 16.04643,0.022 22.67961,3.16452 16.17489,7.66299 24.39126,21.19361 25.5415,42.06145 0.41234,7.4806 0.22409,10.63513 -0.70117,11.75 -1.08662,1.3093 -5.93634,1.52403 -34.41988,1.52403 -28.38944,0 -33.4745,0.22376 -35.37755,1.5567 -3.04505,2.13284 -2.78787,5.24687 0.89217,10.80271 4.69394,7.08656 15.49202,13.64059 22.47353,13.64059 5.53327,0 13.63772,-4.21621 19.44821,-10.11762 4.0596,-4.12311 6.55407,-5.88238 8.34065,-5.88238 3.15549,0 12.51079,3.60678 14.87293,5.73401 2.17392,1.95773 2.24581,6.41888 0.1738,10.78532 -2.30949,4.8669 -12.56057,14.19784 -18.64258,16.96922 -9.1335,4.16184 -25.3753,5.59452 -38.54832,3.40031 z m 31.44793,-67.50106 c 5.05702,-1.35627 3.2946,-6.07758 -4.50284,-12.06256 -5.76394,-4.42416 -13.06546,-5.84479 -19.7846,-3.84942 -5.51179,1.63682 -13.82467,8.15694 -14.95986,11.73361 -1.30758,4.11981 1.50666,4.79172 20.0076,4.77692 9.38238,-0.008 18.04024,-0.27686 19.2397,-0.59855 z m 215.42151,67.08503 c -2.96871,-0.82908 -7.9823,-3.0775 -11.14131,-4.9965 -6.58838,-4.00223 -17.01145,-14.69467 -19.96164,-20.47753 -3.23461,-6.34035 -4.96877,-15.74723 -4.98461,-27.0387 -0.0256,-18.2623 3.61026,-27.37994 15.52571,-38.93371 4.89148,-4.743 9.49023,-8.09439 14.10824,-10.28154 6.81359,-3.22701 6.93679,-3.24485 22.40313,-3.24485 l 15.55187,0 7.55631,3.73453 c 5.72697,2.83042 9.27549,5.54438 14.65756,11.2103 11.20375,11.79463 14.19259,19.70896 14.16762,37.51527 -0.0275,19.63435 -3.56136,28.52255 -16.13202,40.5749 -11.37513,10.9061 -15.80791,12.64793 -33.3532,13.10591 -9.41985,0.24588 -14.48649,-0.0758 -18.39766,-1.16808 z m 22.619,-21.98272 c 15.00711,-4.45663 24.6377,-23.58118 19.92248,-39.56233 -3.42615,-11.61215 -15.70712,-21.92778 -26.10547,-21.92778 -15.1791,0 -28.57461,14.48577 -28.66681,31 -0.0868,15.54492 13.71792,31.45964 27.69696,31.93035 1.13767,0.0383 4.35645,-0.6098 7.15284,-1.44024 z m 244.63556,22.5774 c -17.54542,-2.80768 -34.35736,-20.21655 -37.38671,-38.71417 -5.28368,-32.2628 8.40332,-59.30812 33.38,-65.95841 6.73128,-1.79227 25.63401,-1.77471 32.4138,0.0301 15.34309,4.08443 26.31661,16.1393 30.62135,33.63884 1.91271,7.77553 2.15384,20.99693 0.41466,22.73611 -0.88538,0.88538 -9.94794,1.2 -34.56574,1.2 -21.08751,0 -34.07753,0.38094 -35.3,1.03518 -6.72411,3.59864 4.57543,19.05798 17.18048,23.5053 5.52743,1.95019 7.77581,1.84655 14.49728,-0.66828 3.90276,-1.46021 7.37257,-3.81331 11.05926,-7.5 4.80918,-4.80918 5.81533,-5.37118 9.60046,-5.36243 4.88908,0.0113 14.12055,3.96418 15.07667,6.45578 1.89371,4.93493 -0.95077,10.97675 -8.5527,18.16633 -9.18731,8.68898 -16.02258,11.19247 -32.29571,11.82863 -6.05,0.23651 -13.3144,0.0597 -16.1431,-0.393 z m 32.07452,-68.39371 c 2.5948,-1.89736 1.33984,-4.82494 -4.13355,-9.64281 -4.25222,-3.74295 -11.94124,-7.03099 -16.44186,-7.03099 -4.46447,0 -12.83198,4.25026 -16.7627,8.51459 -7.7559,8.41417 -5.90593,9.41565 17.46556,9.455 13.46181,0.0227 18.52056,-0.30719 19.87255,-1.29579 z m -688.72656,65.55256 c -1.45335,-1.60593 -1.54986,-8.43731 -1.02071,-72.25 0.3648,-43.99297 0.95574,-70.94608 1.57258,-71.72636 1.24688,-1.57727 49.94546,-1.75241 59.74327,-0.21486 9.70322,1.52271 17.75,5.87374 24.7992,13.40936 8.84054,9.45056 10.43685,14.39801 10.02395,31.06722 -0.30557,12.33581 -0.49708,13.39782 -3.51949,19.51698 -3.7944,7.68213 -9.58748,13.6054 -17.79755,18.19752 -3.29664,1.84391 -6.14041,4.11339 -6.3195,5.0433 -0.17938,0.93145 5.87017,10.56926 13.47059,21.46062 19.75988,28.31579 20.3428,29.22698 20.3428,31.79892 0,4.53564 -2.28068,5.47139 -13.32143,5.46568 -7.97385,-0.004 -10.76537,-0.38319 -12.88767,-1.75 -1.49,-0.95961 -10.37343,-13.34183 -19.74096,-27.51605 -12.11218,-18.32724 -17.7754,-26.05401 -19.606,-26.75 -4.08826,-1.55436 -8.27799,-1.14464 -10.44394,1.02131 -1.89267,1.89267 -2,3.33333 -2,26.84501 0,29.9145 0.79203,28.15499 -12.67375,28.15499 -7.36271,0 -9.31065,-0.32528 -10.62139,-1.77364 z m 56.85075,-81.60006 c 9.12255,-4.24795 15.49889,-14.19178 14.05061,-21.91178 -0.8486,-4.52343 -5.6087,-11.03034 -10.34853,-14.14613 -5.12901,-3.37162 -10.91895,-4.51511 -23.00769,-4.54394 -14.69996,-0.0351 -14.25,-0.71317 -14.25,21.47555 0,22.5156 -0.76508,21.5038 16.25,21.49023 10.75363,-0.009 12.86755,-0.29733 17.30561,-2.36393 z m 185.87353,80.99293 c -2.78898,-1.29868 -6.45519,-4.04066 -8.14714,-6.09329 -5.41906,-6.57425 -6.282,-12.10941 -6.282,-40.29449 0,-16.29281 -0.39065,-25.99472 -1.11027,-27.57412 -1.37196,-3.01113 -4.81357,-4.65733 -9.73678,-4.65733 -5.41843,0 -6.15295,-1.25345 -6.15295,-10.5 0,-9.24655 0.73452,-10.5 6.15295,-10.5 4.92321,0 8.36482,-1.6462 9.73678,-4.65733 0.61065,-1.34022 1.11027,-7.0506 1.11027,-12.68972 0,-6.64118 0.42272,-10.67567 1.2,-11.45295 1.62796,-1.62796 18.97204,-1.62796 20.6,0 0.77728,0.77728 1.2,4.81177 1.2,11.45295 0,15.47164 1.55107,17.34705 14.34705,17.34705 4.30785,0 7.74022,0.48727 8.45295,1.2 0.7358,0.7358 1.2,4.33333 1.2,9.3 0,4.96667 -0.4642,8.5642 -1.2,9.3 -0.71273,0.71273 -4.1451,1.2 -8.45295,1.2 -8.29064,0 -11.65394,1.18337 -13.23678,4.65733 -0.69286,1.52067 -1.09381,9.46813 -1.0665,21.13972 0.0633,27.03477 2.31004,32.08544 14.76719,33.19626 5.45653,0.48656 5.75546,0.66259 7.52596,4.43181 1.01405,2.15881 2.08434,6.25639 2.37842,9.10573 0.78812,7.63612 -0.81117,8.47187 -16.18785,8.45938 -10.5301,-0.009 -12.6588,-0.30373 -17.09835,-2.371 z m 46.15176,0.47016 c -1.60975,-1.77875 -1.67894,-5.20053 -1.00253,-49.58104 0.59618,-39.11653 0.98117,-47.92503 2.14552,-49.08938 2.00549,-2.00549 17.16816,-1.96786 19.83498,0.0492 2.71806,2.05584 3.9766,1.90758 10.34146,-1.2182 5.10823,-2.50866 6.59392,-2.75 16.92869,-2.75 12.87719,0 14.17098,0.70121 14.17098,7.6804 0,4.31115 -3.29023,13.75219 -5.21928,14.97628 -0.7044,0.44698 -4.10767,0.81958 -7.56284,0.82801 -3.45516,0.008 -7.95516,0.71161 -10,1.56264 -4.56704,1.90075 -11.76867,8.74273 -14.15979,13.45267 -2.78428,5.48436 -3.22157,10.75339 -3.10264,37.38447 0.13491,30.20826 0.80035,28.61553 -11.95545,28.61553 -7.28451,0 -8.96968,-0.30902 -10.4191,-1.91061 z m 294.6191,-0.28939 c -1.72865,-1.72865 -1.72865,-96.87135 0,-98.6 1.62796,-1.62796 18.97204,-1.62796 20.6,0 1.72865,1.72865 1.72865,96.87135 0,98.6 -0.75751,0.75751 -4.55556,1.2 -10.3,1.2 -5.74444,0 -9.54249,-0.44249 -10.3,-1.2 z m 1.02507,-117.8042 c -4.03495,-2.46011 -5.22507,-5.42018 -5.22507,-12.9958 0,-7.57562 1.19012,-10.53569 5.22507,-12.9958 3.81821,-2.32796 13.77316,-2.73462 17.74491,-0.72489 4.30725,2.17949 7.03002,7.37646 7.03002,13.41823 0,10.2981 -5.06386,15.29498 -15.5,15.29498 -4.23662,0 -6.96249,-0.58683 -9.27493,-1.99672 z"
         id="path4846"
         inkscape:connector-curvature="0" />
      <path
         style="fill:#647bf5"
         d="M 52.016097,487.01595 C 33.219227,484.56886 17.391756,476.38085 10.780476,465.68358 9.709604,463.95087 5.84146,454.44294 2.184603,444.55484 c -5.384889,-14.56067 -7.276255,-18.54866 -9.949316,-20.97836 -3.953359,-3.59344 -4.672348,-5.00759 -6.944963,-13.65976 -1.720027,-6.5484 -1.713206,-6.75743 0.407911,-12.5 3.752832,-10.16018 8.783631,-14.27732 29.030405,-23.75809 3.032894,-1.42018 6.491099,-2.58215 7.6849,-2.58215 1.193801,0 3.378383,-0.45922 4.854626,-1.02048 2.81749,-1.07121 13.136288,-2.85278 22.446121,-3.87539 l 5.5,-0.60413 -0.0334,-8 c -0.0184,-4.4 -0.39555,-11.92903 -0.8382,-16.73118 l -0.80483,-8.73117 -5.85459,-3.55647 c -10.835929,-6.5825 -15.115405,-13.803 -15.764041,-26.59778 -0.394761,-7.78693 -0.169995,-9.21117 2.3343,-14.79149 3.504473,-7.809 11.305446,-15.2153 18.566301,-17.62697 7.74598,-2.5728 20.10444,-1.704 26.14884,1.83825 7.43214,4.35552 10.45189,7.42139 13.68759,13.8966 2.66109,5.32531 3.05803,7.17912 3.05803,14.28179 0,4.66592 -0.64778,10.05892 -1.51227,12.59028 -2.03735,5.96561 -8.60836,13.41476 -15.03062,17.03925 l -5.27048,2.97448 -0.70861,10.70721 c -0.38974,5.88896 -0.76923,13.4072 -0.84332,16.7072 l -0.1347,6 3.5,0.23582 c 10.89486,0.73408 32.231913,5.34993 38.565723,8.34294 2.23615,1.05668 4.76297,1.92124 5.61515,1.92124 0.85217,0 2.6226,0.83637 3.93427,1.8586 1.31167,1.02224 3.95986,2.66509 5.88486,3.65078 7.55153,3.86677 14.99727,15.45132 14.99919,23.33671 0.002,6.2351 -2.89603,13.85615 -6.45682,16.98256 -4.25433,3.73536 -4.09122,3.40671 -11.97073,24.12021 -8.52694,22.41549 -11.71236,26.82214 -23.98567,33.1813 -7.718033,3.99894 -13.020353,5.59162 -24.585973,7.38498 -10.25373,1.58994 -16.01416,1.68506 -25.69819,0.42433 z m 40.38309,-65.00608 c 4.096,-1.55194 7.3151,-4.92873 7.3151,-7.67345 0,-1.31528 0.453193,-3.23822 1.007093,-4.27319 0.77861,-1.45484 0.39977,-2.88722 -1.669823,-6.31356 -2.59847,-4.30195 -2.85504,-4.44931 -8.75708,-5.02965 -12.21878,-1.20145 -18.54252,2.41583 -19.26068,11.01742 -0.50104,6.00099 1.11581,9.2911 5.6944,11.58749 3.91705,1.96459 11.42726,2.29285 15.67099,0.68494 z m 589.853863,49.46251 c -1.4467,-1.4467 -1.57637,-8.37258 -1.32143,-70.58102 0.27438,-66.95358 0.33961,-69.01854 2.2238,-70.3959 2.71644,-1.98574 17.47502,-1.94964 20.11774,0.0492 2.70528,2.04617 4.40591,1.8951 10.60277,-0.94192 11.88801,-5.44251 28.62338,-5.5182 40.27879,-0.18218 10.73232,4.91342 23.04632,19.01675 26.57275,30.434 4.44532,14.39227 3.26283,33.59181 -2.85608,46.37287 -3.64238,7.60813 -11.3139,16.46713 -17.8769,20.6441 -11.28627,7.18304 -28.57208,8.73264 -42.2802,3.79023 -12.63507,-4.55552 -11.42291,-6.44476 -12,18.70286 -0.41069,17.89616 -0.76794,21.95724 -2,22.73469 -0.825,0.52059 -5.63036,0.95342 -10.67857,0.96184 -7.10507,0.0119 -9.54095,-0.34707 -10.78267,-1.58879 z m 58.46124,-63.56437 c 5.43536,-2.3278 12.40342,-8.87397 15.25518,-14.33153 1.44493,-2.76524 2.22841,-6.51847 2.53808,-12.15859 0.41731,-7.60054 0.22183,-8.64916 -2.85784,-15.33059 -4.88148,-10.59052 -13.00173,-16.82287 -23.2025,-17.80813 -6.47389,-0.62529 -16.58629,4.23174 -20.73527,9.95925 -11.93384,16.47419 -7.3127,40.3459 9.50235,49.08684 7.71951,4.01283 11.24486,4.11818 19.5,0.58275 z m -383.95733,24.09871 c -15.77801,-2.81444 -29.549,-15.24127 -35.23559,-31.79633 -1.94332,-5.65746 -2.28081,-8.69459 -2.2929,-20.63391 -0.0123,-12.18748 0.29642,-14.90626 2.38488,-21 5.93382,-17.3137 17.58564,-28.17524 33.8467,-31.55102 8.65145,-1.79603 27.43089,-0.75551 34.25424,1.89794 16.70195,6.49503 26.62598,22.11305 27.77158,43.70572 0.40358,7.60673 0.20918,9.32374 -1.21707,10.75 -1.5279,1.52789 -4.99164,1.69736 -34.69168,1.69736 -20.83147,0 -33.70735,0.3816 -34.92857,1.03518 -2.79875,1.49785 -2.42821,5.79438 0.96057,11.13793 3.51837,5.5479 8.3145,9.33864 15.05681,11.90051 6.44565,2.44916 8.6431,2.41895 15.76085,-0.21667 4.09914,-1.51786 7.30337,-3.69631 10.98369,-7.46744 2.8579,-2.92841 6.25726,-5.5907 7.55413,-5.9162 2.83933,-0.71262 13.19175,2.96875 15.86449,5.64149 6.81928,6.81928 -7.65813,24.43951 -24.1148,29.34974 -6.66198,1.98775 -24.45555,2.80384 -31.95733,1.4657 z m 32.38875,-68.25644 c 2.53947,-1.8569 1.40154,-4.65128 -3.87457,-9.51463 -4.09823,-3.77762 -11.99934,-7.15917 -16.72762,-7.15917 -4.00149,0 -12.43588,4.17896 -16.51567,8.18297 -4.42891,4.34666 -5.21324,6.51735 -3.11356,8.61703 1.78853,1.78853 37.76721,1.67568 40.23142,-0.1262 z m 213.67092,67.79903 c -2.96871,-0.82908 -7.9823,-3.0775 -11.14131,-4.9965 -6.58838,-4.00223 -17.01145,-14.69467 -19.96164,-20.47753 -3.23461,-6.34035 -4.96877,-15.74723 -4.98461,-27.0387 -0.0256,-18.2623 3.61026,-27.37994 15.52571,-38.93371 4.89148,-4.743 9.49023,-8.09439 14.10824,-10.28154 6.81359,-3.22701 6.93679,-3.24485 22.40313,-3.24485 l 15.55187,0 7.55631,3.73453 c 5.72697,2.83042 9.27549,5.54438 14.65756,11.2103 11.20375,11.79463 14.19259,19.70896 14.16762,37.51527 -0.0275,19.63435 -3.56136,28.52255 -16.13202,40.5749 -11.37513,10.9061 -15.80791,12.64793 -33.3532,13.10591 -9.41985,0.24588 -14.48649,-0.0758 -18.39766,-1.16808 z m 22.619,-21.98272 c 15.00711,-4.45663 24.6377,-23.58118 19.92248,-39.56233 -3.42615,-11.61215 -15.70712,-21.92778 -26.10547,-21.92778 -15.1791,0 -28.57461,14.48577 -28.66681,31 -0.0868,15.54492 13.71792,31.45964 27.69696,31.93035 1.13767,0.0383 4.35645,-0.6098 7.15284,-1.44024 z m -412.01648,19.73625 c -1.45335,-1.60593 -1.54986,-8.43731 -1.02071,-72.25 0.3648,-43.99297 0.95574,-70.94608 1.57258,-71.72636 1.24688,-1.57727 49.94546,-1.75241 59.74327,-0.21486 9.70322,1.52271 17.75,5.87374 24.7992,13.40936 8.84054,9.45056 10.43685,14.39801 10.02395,31.06722 -0.30557,12.33581 -0.49708,13.39782 -3.51949,19.51698 -3.7944,7.68213 -9.58748,13.6054 -17.79755,18.19752 -3.29664,1.84391 -6.14041,4.11339 -6.3195,5.0433 -0.17938,0.93145 5.87017,10.56926 13.47059,21.46062 19.75988,28.31579 20.3428,29.22698 20.3428,31.79892 0,4.53564 -2.28068,5.47139 -13.32143,5.46568 -7.97385,-0.004 -10.76537,-0.38319 -12.88767,-1.75 -1.49,-0.95961 -10.37343,-13.34183 -19.74096,-27.51605 -12.11218,-18.32724 -17.7754,-26.05401 -19.606,-26.75 -4.08826,-1.55436 -8.27799,-1.14464 -10.44394,1.02131 -1.89267,1.89267 -2,3.33333 -2,26.84501 0,29.9145 0.79203,28.15499 -12.67375,28.15499 -7.36271,0 -9.31065,-0.32528 -10.62139,-1.77364 z m 56.85075,-81.60006 c 9.12255,-4.24795 15.49889,-14.19178 14.05061,-21.91178 -0.8486,-4.52343 -5.6087,-11.03034 -10.34853,-14.14613 -5.12901,-3.37162 -10.91895,-4.51511 -23.00769,-4.54394 -14.69996,-0.0351 -14.25,-0.71317 -14.25,21.47555 0,22.5156 -0.76508,21.5038 16.25,21.49023 10.75363,-0.009 12.86755,-0.29733 17.30561,-2.36393 z m 232.02529,81.46309 c -1.60975,-1.77875 -1.67894,-5.20053 -1.00253,-49.58104 0.59618,-39.11653 0.98117,-47.92503 2.14552,-49.08938 2.00549,-2.00549 17.16816,-1.96786 19.83498,0.0492 2.71806,2.05584 3.9766,1.90758 10.34146,-1.2182 5.10823,-2.50866 6.59392,-2.75 16.92869,-2.75 12.87719,0 14.17098,0.70121 14.17098,7.6804 0,4.31115 -3.29023,13.75219 -5.21928,14.97628 -0.7044,0.44698 -4.10767,0.81958 -7.56284,0.82801 -3.45516,0.008 -7.95516,0.71161 -10,1.56264 -4.56704,1.90075 -11.76867,8.74273 -14.15979,13.45267 -2.78428,5.48436 -3.22157,10.75339 -3.10264,37.38447 0.13491,30.20826 0.80035,28.61553 -11.95545,28.61553 -7.28451,0 -8.96968,-0.30902 -10.4191,-1.91061 z m 294.99053,-0.66082 c -1.38433,-1.38433 -1.57143,-7.20996 -1.57143,-48.92857 0,-41.71862 0.1871,-47.54424 1.57143,-48.92857 2.24171,-2.24171 17.61543,-2.24171 19.85714,0 1.38433,1.38433 1.57143,7.20995 1.57143,48.92857 0,41.71861 -0.1871,47.54424 -1.57143,48.92857 -1.17786,1.17786 -3.6645,1.57143 -9.92857,1.57143 -6.26407,0 -8.75071,-0.39357 -9.92857,-1.57143 z m 1.62666,-117.10138 c -1.81605,-0.89501 -3.95355,-2.88741 -4.75,-4.42757 -1.75357,-3.39103 -1.90354,-13.80591 -0.25103,-17.43278 2.69754,-5.92044 15.79178,-8.60046 22.38298,-4.58116 8.81055,5.37266 8.41862,21.42795 -0.6417,26.28705 -4.24841,2.27845 -12.28008,2.35255 -16.74025,0.15446 z"
         id="path4844"
         inkscape:connector-curvature="0" />
      <path
         style="fill:#ea503e"
         d="M 52.016097,487.01595 C 33.219227,484.56886 17.391756,476.38085 10.780476,465.68358 9.709604,463.95087 5.84146,454.44294 2.184603,444.55484 c -5.384889,-14.56067 -7.276255,-18.54866 -9.949316,-20.97836 -3.953359,-3.59344 -4.672348,-5.00759 -6.944963,-13.65976 -1.720027,-6.5484 -1.713206,-6.75743 0.407911,-12.5 3.752832,-10.16018 8.783631,-14.27732 29.030405,-23.75809 3.032894,-1.42018 6.302188,-2.58215 7.265098,-2.58215 0.96291,0 4.331451,-0.63834 7.485647,-1.41854 14.381461,-3.55728 24.546952,-4.5036 25.843462,-2.40581 0.39963,0.64661 1.05795,5.17591 1.46295,10.06511 0.81575,9.84794 2.38839,12.75924 6.89235,12.75924 5.1083,0 6.20371,-1.85083 7.14642,-12.07478 0.47799,-5.18387 1.08459,-9.98772 1.34801,-10.67522 0.59621,-1.55605 6.90017,-1.61788 14.98151,-0.14694 11.58482,2.10864 23.084253,5.06583 27.125923,6.9757 2.23615,1.05668 4.76297,1.92124 5.61515,1.92124 0.85217,0 2.6226,0.83637 3.93427,1.8586 1.31167,1.02224 3.95986,2.66509 5.88486,3.65078 7.55153,3.86677 14.99727,15.45132 14.99919,23.33671 0.002,6.2351 -2.89603,13.85615 -6.45682,16.98256 -4.25433,3.73536 -4.09122,3.40671 -11.97073,24.12021 -8.52694,22.41549 -11.71236,26.82214 -23.98567,33.1813 -7.718033,3.99894 -13.020353,5.59162 -24.585973,7.38498 -10.25373,1.58994 -16.01416,1.68506 -25.69819,0.42433 z m 40.38309,-65.00608 c 4.096,-1.55194 7.3151,-4.92873 7.3151,-7.67345 0,-1.31528 0.453193,-3.23822 1.007093,-4.27319 0.77861,-1.45484 0.39977,-2.88722 -1.669823,-6.31356 -2.59847,-4.30195 -2.85504,-4.44931 -8.75708,-5.02965 -12.21878,-1.20145 -18.54252,2.41583 -19.26068,11.01742 -0.50104,6.00099 1.11581,9.2911 5.6944,11.58749 3.91705,1.96459 11.42726,2.29285 15.67099,0.68494 z m 264.357773,9.99685 c -15.77801,-2.81444 -29.549,-15.24127 -35.23559,-31.79633 -1.94332,-5.65746 -2.28081,-8.69459 -2.2929,-20.63391 -0.0123,-12.18748 0.29642,-14.90626 2.38488,-21 5.93382,-17.3137 17.58564,-28.17524 33.8467,-31.55102 8.65145,-1.79603 27.43089,-0.75551 34.25424,1.89794 16.70195,6.49503 26.62598,22.11305 27.77158,43.70572 0.40358,7.60673 0.20918,9.32374 -1.21707,10.75 -1.5279,1.52789 -4.99164,1.69736 -34.69168,1.69736 -20.83147,0 -33.70735,0.3816 -34.92857,1.03518 -2.79875,1.49785 -2.42821,5.79438 0.96057,11.13793 3.51837,5.5479 8.3145,9.33864 15.05681,11.90051 6.44565,2.44916 8.6431,2.41895 15.76085,-0.21667 4.09914,-1.51786 7.30337,-3.69631 10.98369,-7.46744 2.8579,-2.92841 6.25726,-5.5907 7.55413,-5.9162 2.83933,-0.71262 13.19175,2.96875 15.86449,5.64149 6.81928,6.81928 -7.65813,24.43951 -24.1148,29.34974 -6.66198,1.98775 -24.45555,2.80384 -31.95733,1.4657 z m 32.38875,-68.25644 c 2.53947,-1.8569 1.40154,-4.65128 -3.87457,-9.51463 -4.09823,-3.77762 -11.99934,-7.15917 -16.72762,-7.15917 -4.00149,0 -12.43588,4.17896 -16.51567,8.18297 -4.42891,4.34666 -5.21324,6.51735 -3.11356,8.61703 1.78853,1.78853 37.76721,1.67568 40.23142,-0.1262 z m 213.67092,67.79903 c -2.96871,-0.82908 -7.9823,-3.0775 -11.14131,-4.9965 -6.58838,-4.00223 -17.01145,-14.69467 -19.96164,-20.47753 -3.23461,-6.34035 -4.96877,-15.74723 -4.98461,-27.0387 -0.0256,-18.2623 3.61026,-27.37994 15.52571,-38.93371 4.89148,-4.743 9.49023,-8.09439 14.10824,-10.28154 6.81359,-3.22701 6.93679,-3.24485 22.40313,-3.24485 l 15.55187,0 7.55631,3.73453 c 5.72697,2.83042 9.27549,5.54438 14.65756,11.2103 11.20375,11.79463 14.19259,19.70896 14.16762,37.51527 -0.0275,19.63435 -3.56136,28.52255 -16.13202,40.5749 -11.37513,10.9061 -15.80791,12.64793 -33.3532,13.10591 -9.41985,0.24588 -14.48649,-0.0758 -18.39766,-1.16808 z m 22.619,-21.98272 c 15.00711,-4.45663 24.6377,-23.58118 19.92248,-39.56233 -3.42615,-11.61215 -15.70712,-21.92778 -26.10547,-21.92778 -15.1791,0 -28.57461,14.48577 -28.66681,31 -0.0868,15.54492 13.71792,31.45964 27.69696,31.93035 1.13767,0.0383 4.35645,-0.6098 7.15284,-1.44024 z m 171.85009,18.93846 c -1.38433,-1.38433 -1.57143,-7.20996 -1.57143,-48.92857 0,-41.71862 0.1871,-47.54424 1.57143,-48.92857 2.24171,-2.24171 17.61543,-2.24171 19.85714,0 1.38433,1.38433 1.57143,7.20995 1.57143,48.92857 0,41.71861 -0.1871,47.54424 -1.57143,48.92857 -1.17786,1.17786 -3.6645,1.57143 -9.92857,1.57143 -6.26407,0 -8.75071,-0.39357 -9.92857,-1.57143 z M 55.628977,332.20865 c -5.52437,-1.17688 -15.0075,-8.02289 -18.637757,-13.45486 -4.083994,-6.1109 -5.264568,-10.4065 -5.270567,-19.17731 -0.0064,-9.2859 3.612065,-17.17343 10.873275,-23.70188 6.945839,-6.24491 12.900549,-8.16543 23.579549,-7.60493 6.61821,0.34737 9.11784,0.95493 12.79519,3.11 7.43214,4.35552 10.45189,7.42139 13.68759,13.8966 2.66109,5.32531 3.05803,7.17912 3.05803,14.28179 0,10.26254 -1.82718,15.71206 -7.40668,22.09027 -6.24323,7.13695 -12.62087,10.32932 -21.73531,10.87976 -4.0469,0.24439 -8.9714,0.10065 -10.94332,-0.31944 z M 798.91238,311.40367 c -1.81605,-0.89501 -3.95355,-2.88741 -4.75,-4.42757 -1.75357,-3.39103 -1.90354,-13.80591 -0.25103,-17.43278 2.69754,-5.92044 15.79178,-8.60046 22.38298,-4.58116 8.81055,5.37266 8.41862,21.42795 -0.6417,26.28705 -4.24841,2.27845 -12.28008,2.35255 -16.74025,0.15446 z"
         id="path4842"
         inkscape:connector-curvature="0" />
      <path
         style="fill:#6aaa52"
         d="m 602.81663,431.54931 c -2.96871,-0.82908 -7.9823,-3.0775 -11.14131,-4.9965 -6.58838,-4.00223 -17.01145,-14.69467 -19.96164,-20.47753 -3.23461,-6.34035 -4.96877,-15.74723 -4.98461,-27.0387 -0.0256,-18.2623 3.61026,-27.37994 15.52571,-38.93371 4.89148,-4.743 9.49023,-8.09439 14.10824,-10.28154 6.81359,-3.22701 6.93679,-3.24485 22.40313,-3.24485 l 15.55187,0 7.55631,3.73453 c 5.72697,2.83042 9.27549,5.54438 14.65756,11.2103 11.20375,11.79463 14.19259,19.70896 14.16762,37.51527 -0.0275,19.63435 -3.56136,28.52255 -16.13202,40.5749 -11.37513,10.9061 -15.80791,12.64793 -33.3532,13.10591 -9.41985,0.24588 -14.48649,-0.0758 -18.39766,-1.16808 z m 22.619,-21.98272 c 15.00711,-4.45663 24.6377,-23.58118 19.92248,-39.56233 -3.42615,-11.61215 -15.70712,-21.92778 -26.10547,-21.92778 -15.1791,0 -28.57461,14.48577 -28.66681,31 -0.0868,15.54492 13.71792,31.45964 27.69696,31.93035 1.13767,0.0383 4.35645,-0.6098 7.15284,-1.44024 z m -521.42843,-0.5054 c -5.260823,-2.11787 -9.008133,-12.91127 -6.263273,-18.0401 3.669403,-6.85633 22.271323,-6.85633 25.940723,0 1.60164,2.99269 1.24318,11.30551 -0.60105,13.93852 -3.0793,4.39631 -13.02985,6.53576 -19.0764,4.10158 z"
         id="path4840"
         inkscape:connector-curvature="0" />
      <path
         style="fill:#000000;fill-opacity:1;stroke-width:0.5"
         d="m 246.43583,172.8296 c -2.81356,-1.22361 -2.80293,-1.04981 -2.7222,-44.51678 0.0758,-40.795511 0.81357,-97.022535 1.37908,-105.097006 0.24987,-3.567688 0.503,-4.667772 1.13051,-4.913057 0.4447,-0.173829 7.67105,-0.534042 16.05855,-0.800474 18.34727,-0.582806 42.74323,0.08674 48.8252,1.340009 9.02168,1.859035 15.50368,5.448587 22.83176,12.643594 5.28025,5.184365 8.92134,10.417911 10.4177,14.973952 0.97738,2.975907 1.12457,4.683348 1.30881,15.182738 0.25109,14.308568 -0.1592,17.599723 -2.91521,23.384433 -4.02551,8.44931 -9.80221,14.72926 -18.44694,20.053981 -2.62423,1.6164 -5.50955,3.61725 -6.41184,4.44635 l -1.64052,1.50746 1.21866,2.38901 c 1.94587,3.81458 7.90508,12.90478 17.62749,26.88903 4.97095,7.14999 10.88132,15.7907 13.13416,19.20157 4.02388,6.09231 4.09346,6.25047 3.9484,8.97457 -0.13725,2.57739 -0.2711,2.8453 -1.89767,3.79841 -1.54121,0.90308 -2.77164,1.04611 -10.313,1.19875 -10.6929,0.21643 -13.74567,-0.3155 -16.0927,-2.80407 -2.28155,-2.41916 -10.91197,-14.60996 -20.08385,-28.36925 -14.69577,-22.04599 -18.68914,-27.3128 -21.5886,-28.47293 -2.5879,-1.03548 -6.7435,-0.9895 -8.92185,0.0987 -1.08754,0.54329 -2.12637,1.63132 -2.74425,2.87423 -0.94055,1.89199 -1.00805,3.3366 -1.25,26.75 -0.33331,32.25603 0.64854,29.99325 -13.00575,29.97306 -5.91493,-0.009 -8.70171,-0.20865 -9.84594,-0.70628 z m 53.44633,-85.831916 c 12.93419,-2.75873 23.70414,-17.201985 20.18382,-27.067917 -1.07282,-3.006636 -3.82184,-7.207548 -6.52943,-9.977917 -6.44221,-6.59159 -12.80155,-8.389737 -29.66596,-8.388254 -10.26266,9.02e-4 -11.66422,0.394958 -13.33507,3.749223 -0.91204,1.83093 -1.01103,3.225754 -1.17101,16.5 -0.24357,20.210095 0.37051,23.662415 4.46409,25.09678 2.25279,0.78936 22.44557,0.857635 26.05356,0.08809 z"
         id="path8668"
         inkscape:connector-curvature="0"
         transform="matrix(0.9375,0,0,0.9375,-15.990915,268.05608)" />
      <path
         style="fill:#000000;fill-opacity:1;stroke-width:0.5"
         d="m 400.78177,175.05305 c -17.90371,-1.75225 -34.16381,-15.54683 -40.65471,-34.49023 -1.78169,-5.19976 -2.34691,-10.5817 -2.33538,-22.23689 0.0112,-11.3524 0.44794,-15.30914 2.31927,-21.013111 2.64438,-8.060267 6.79609,-15.243937 11.99529,-20.755365 6.0459,-6.408974 13.57064,-10.80508 22.15983,-12.946225 5.59837,-1.395582 15.02507,-1.832092 23.2657,-1.077333 9.84453,0.901658 13.43069,1.725756 18.58904,4.271744 16.28535,8.037901 25.09487,23.815223 26.02264,46.60499 0.31953,7.84887 -0.0236,9.12239 -2.76283,10.2541 -0.9114,0.37655 -12.37534,0.68799 -35.34885,0.96034 -18.97077,0.22489 -34.87815,0.61959 -35.98661,0.89292 -2.70241,0.66636 -3.38729,1.72524 -3.14205,4.85784 0.65804,8.40544 10.00317,17.56558 21.55633,21.12959 4.3128,1.33045 6.81914,1.33226 11.14466,0.008 5.58745,-1.71051 9.66427,-4.16235 14.85357,-8.93304 2.65525,-2.44107 5.64099,-4.94093 6.63497,-5.55524 1.64226,-1.01497 2.06465,-1.06905 4.62736,-0.59247 4.71018,0.87595 10.91469,3.53022 13.09062,5.60014 1.8514,1.7612 1.97115,2.05074 1.97115,4.76617 0,4.48126 -2.19694,8.471 -7.74086,14.05774 -6.01818,6.06466 -11.43675,9.56069 -18.50914,11.94198 -5.43978,1.83159 -23.19112,3.09196 -31.75,2.25429 z m 30.25,-72.33715 c 0.825,-0.26086 1.8375,-1.07558 2.25,-1.8105 0.69388,-1.236227 0.65903,-1.507814 -0.46583,-3.629641 -3.50455,-6.610671 -16.6219,-13.874799 -23.56896,-13.052023 -3.0675,0.363301 -8.43096,2.599136 -12.13871,5.060198 -4.91909,3.265108 -9.31961,8.148814 -9.32463,10.348493 -0.004,1.660383 1.78464,3.107853 4.30415,3.483583 3.46733,0.51708 37.1373,0.17116 38.94398,-0.40011 z"
         id="path8670"
         inkscape:connector-curvature="0"
         transform="matrix(0.9375,0,0,0.9375,-15.990915,268.05608)" />
      <path
         style="fill:#000000;fill-opacity:1;stroke-width:0.5"
         d="m 508.44946,172.87114 c -9.05841,-2.26574 -16.54918,-9.85055 -18.44193,-18.67342 -0.99914,-4.65744 -1.7,-19.94547 -1.74824,-38.1349 -0.0477,-17.991236 -0.41716,-23.010031 -1.83376,-24.910636 -1.68902,-2.266095 -3.91726,-3.20331 -9.01818,-3.79312 -6.41675,-0.74196 -6.78821,-1.207665 -7.04938,-8.837973 -0.23652,-6.910137 0.20097,-10.530527 1.4322,-11.852098 0.70239,-0.753924 1.84387,-1.103526 4.34705,-1.331366 6.6354,-0.603956 9.68328,-2.048701 11.00736,-5.217663 0.52935,-1.266931 0.87727,-4.97504 1.1839,-12.618058 0.23883,-5.953122 0.64954,-11.390146 0.91268,-12.082273 0.6358,-1.672274 2.7941,-2.027811 12.04061,-1.98345 7.78826,0.03737 9.77555,0.464088 10.44432,2.242669 0.23452,0.623682 0.63377,5.867813 0.88722,11.653626 0.42312,9.658855 0.56138,10.721935 1.68965,12.991614 1.8443,3.710101 3.2327,4.294479 11.39221,4.794985 10.31585,0.632777 11.03939,0.778312 11.69911,2.353199 0.74475,1.777878 0.74475,15.903208 0,17.681088 -0.64132,1.53095 -0.85577,1.57432 -11.42552,2.31066 -7.40477,0.51585 -9.74174,1.324295 -11.5112,3.982165 -1.55224,2.331585 -1.83068,7.12471 -1.53625,26.446061 0.27076,17.76866 0.65609,20.94877 3.15793,26.06234 2.06623,4.22323 4.80095,5.65668 12.65457,6.63308 2.31111,0.28733 4.61663,0.7443 5.12336,1.0155 2.74839,1.47089 6.08582,13.77299 4.90079,18.06481 -0.3685,1.33459 -0.96835,2.02518 -2.36013,2.71711 -1.63749,0.81409 -3.3053,0.94024 -13.61606,1.02984 -8.24732,0.0717 -12.51979,-0.0904 -14.33231,-0.54379 z"
         id="path8672"
         inkscape:connector-curvature="0"
         transform="matrix(0.9375,0,0,0.9375,-15.990915,268.05608)" />
      <path
         style="fill:#000000;fill-opacity:1;stroke-width:0.5"
         d="m 555.46891,173.21809 c -0.58458,-0.11469 -1.59708,-0.7769 -2.25,-1.47157 l -1.18714,-1.26302 -0.16377,-18.83534 c -0.18347,-21.10136 0.7212,-72.311984 1.40505,-79.535604 0.2627,-2.775025 0.72655,-4.981855 1.13244,-5.387739 0.38077,-0.380773 2.73717,-0.929828 5.28188,-1.23071 5.64454,-0.667401 12.77071,0.03841 15.67576,1.552611 2.88241,1.502395 4.84161,1.272619 10.38253,-1.21767 5.93979,-2.669553 9.17262,-3.260716 17.78611,-3.252399 12.67602,0.01224 15.05924,0.937752 15.5872,6.053237 0.53065,5.14148 -3.38343,16.918591 -5.93729,17.864774 -0.63245,0.234318 -3.73741,0.577009 -6.89991,0.761536 -10.67933,0.623124 -13.69581,1.913739 -20.50229,8.771988 -4.5993,4.634276 -6.52406,7.694866 -7.74919,12.322066 -1.10646,4.179 -1.74489,19.26195 -1.70211,40.21257 0.0199,9.7625 -0.11314,18.425 -0.29572,19.25 -1.19791,5.41274 -1.94326,5.77009 -11.85086,5.68191 -4.2074,-0.0375 -8.12812,-0.16194 -8.71269,-0.27664 z"
         id="path8674"
         inkscape:connector-curvature="0"
         transform="matrix(0.9375,0,0,0.9375,-15.990915,268.05608)" />
      <path
         style="fill:#000000;fill-opacity:1;stroke-width:0.5"
         d="m 664.03177,175.05048 c -10.85775,-1.68266 -23.15548,-9.8911 -32.82311,-21.90865 -4.529,-5.62988 -6.48587,-10.20855 -8.26098,-19.32901 -1.09833,-5.64319 -1.26822,-24.08572 -0.27175,-29.5 2.11138,-11.472024 7.97274,-20.991232 18.4576,-29.976252 7.19513,-6.165875 14.76448,-10.284317 20.65955,-11.240743 1.78128,-0.288999 9.73264,-0.527152 17.66969,-0.529229 l 14.43099,-0.0038 6.38052,3.28401 c 7.60286,3.913139 12.90165,8.014403 18.47133,14.2968 10.6251,11.984723 13.5205,20.120704 13.53206,38.024584 0.0127,19.71282 -3.42967,29.1578 -14.97077,41.07559 -9.49319,9.80304 -15.48961,13.59666 -23.83859,15.08142 -5.26943,0.9371 -24.94198,1.4218 -29.43654,0.72526 z m 20.73689,-24.18412 c 12.287,-4.20844 21.08758,-16.7213 21.87301,-31.09951 0.46537,-8.51895 -1.45579,-14.72806 -6.665,-21.541051 -4.96586,-6.49472 -12.32781,-11.396923 -19.05753,-12.690099 -6.28066,-1.206885 -14.14351,1.062291 -20.63737,5.955835 -7.75608,5.844708 -13.5,17.342515 -13.5,27.023435 0,8.59416 4.14842,17.78619 11.20755,24.83358 8.70245,8.68799 16.7593,10.9498 26.77934,7.51781 z"
         id="path8676"
         inkscape:connector-curvature="0"
         transform="matrix(0.9375,0,0,0.9375,-15.990915,268.05608)" />
      <path
         style="fill:#000000;fill-opacity:1;stroke-width:0.5"
         d="m 869.85573,172.03018 c -0.89232,-0.27204 -2.01732,-1.09726 -2.5,-1.83383 -0.82173,-1.25396 -0.8776,-4.46026 -0.8776,-50.36138 0,-26.962181 0.18215,-49.882981 0.40477,-50.935106 0.62104,-2.934994 2.45691,-3.521709 11.09523,-3.545849 5.99275,-0.01675 7.28774,0.122773 8.99971,0.96962 1.66522,0.82372 2.06819,1.32373 2.40909,2.989184 0.62242,3.04086 0.98917,79.043351 0.43551,90.250001 -0.26494,5.3625 -0.64601,10.15 -0.84684,10.63889 -0.20082,0.48889 -0.8449,1.1566 -1.4313,1.4838 -1.35272,0.7548 -15.44268,1.02935 -17.68857,0.34467 z"
         id="path8678"
         inkscape:connector-curvature="0"
         transform="matrix(0.9375,0,0,0.9375,-15.990915,268.05608)" />
      <path
         style="fill:#000000;fill-opacity:1;stroke-width:0.5"
         d="m 748.97813,218.21769 c -2.24414,-0.29217 -4.12737,-1.14397 -4.58908,-2.07565 -0.58357,-1.1776 -0.79339,-121.411317 -0.23669,-135.630836 0.27024,-6.90271 0.69672,-12.240132 1.0274,-12.858017 0.31649,-0.591354 1.38704,-1.263476 2.43187,-1.526788 5.82148,-1.4671 16.79074,-0.964503 19.82077,0.908162 2.49964,1.544863 5.08367,1.307037 10.78825,-0.99292 9.08011,-3.660895 11.61519,-4.148119 21.75748,-4.181645 7.71818,-0.02551 9.62676,0.128769 13.40067,1.083258 11.81554,2.988358 21.95717,10.84858 30.38223,23.547605 6.05118,9.120913 7.90842,15.617591 8.31917,29.100731 0.4881,16.02221 -2.1492,27.1749 -8.82086,37.30201 -7.59717,11.53198 -16.83927,18.57521 -28.53121,21.74312 -3.73692,1.0125 -5.39689,1.15152 -13.75,1.15152 -10.35584,0 -12.7322,-0.41055 -21.5,-3.71449 -2.2,-0.82902 -4.85524,-1.50812 -5.90052,-1.50912 -3.20908,-0.003 -3.39859,0.9914 -3.9063,20.49819 -0.44264,17.00714 -1.03952,25.29634 -1.8822,26.13901 -0.99895,0.99895 -13.68066,1.68381 -18.81098,1.01586 z m 52.75,-66.89761 c 10.32274,-2.74348 21.03174,-12.59085 23.44702,-21.56051 0.9604,-3.56665 1.54501,-13.39868 0.99979,-16.81469 -0.62642,-3.92483 -4.45157,-12.01798 -7.71785,-16.329234 -5.18984,-6.850215 -13.45121,-11.115327 -21.52999,-11.115327 -3.90469,0 -6.4591,0.680165 -11.17766,2.976277 -6.88087,3.348327 -11.73126,9.035514 -14.58584,17.102224 -6.71215,18.96773 2.12037,38.98173 19.98642,45.28814 3.84811,1.35832 6.71078,1.48094 10.57811,0.45312 z"
         id="path8680"
         inkscape:connector-curvature="0"
         transform="matrix(0.9375,0,0,0.9375,-15.990915,268.05608)" />
      <path
         style="fill:#000000;fill-opacity:1;stroke-width:0.5"
         d="m 871.09305,46.759924 c -3.12615,-0.961068 -6.58917,-4.262504 -7.28712,-6.947105 -1.70534,-6.55935 -1.05657,-15.229497 1.3656,-18.25 1.88053,-2.345057 6.02698,-4.331181 10.48691,-5.023163 11.64621,-1.806971 19.13897,4.908694 18.46506,16.550012 -0.39638,6.847241 -4.05813,12.091838 -9.58928,13.734416 -3.14957,0.93532 -10.30112,0.901183 -13.44117,-0.06416 z"
         id="path8682"
         inkscape:connector-curvature="0"
         transform="matrix(0.9375,0,0,0.9375,-15.990915,268.05608)" />
      <path
         style="fill:#000000;fill-opacity:1;stroke-width:0.5"
         d="m 948.22813,175.03444 c -2.6125,-0.2106 -6.325,-0.87212 -8.25,-1.47004 -12.52991,-3.89186 -24.56399,-14.93044 -30.81182,-28.26295 -6.56916,-14.01823 -6.5716,-35.50244 -0.006,-52.492991 5.70315,-14.758574 18.92651,-26.527852 33.06777,-29.431523 9.02542,-1.853222 27.72609,-1.445764 34.87613,0.759896 15.07422,4.650128 26.15989,17.222168 30.64319,34.751765 1.9511,7.628853 2.3925,21.736043 0.7503,23.981883 -0.9529,1.30309 -6.9267,1.61439 -32.26962,1.68157 -12.5125,0.0332 -27.12458,0.24563 -32.47129,0.47214 -9.70469,0.41113 -9.72325,0.41412 -10.875,1.75311 -4.9418,5.74519 8.17761,21.12706 21.31204,24.98734 4.45926,1.3106 7.49579,1.01507 13.53425,-1.31725 4.03168,-1.55722 7.52285,-3.91736 12.03101,-8.13334 5.96119,-5.57484 7.71581,-6.23437 13.42109,-5.04479 4.38376,0.91404 10.60272,3.81977 12.01332,5.61313 1.4825,1.88468 1.3829,5.66121 -0.2413,9.15048 -1.6378,3.51843 -5.90488,8.71153 -10.12841,12.32646 -8.89314,7.61168 -15.18089,9.81496 -30.5588,10.70808 -9.03903,0.52497 -9.11789,0.52481 -16.03691,-0.033 z m 27.69409,-71.95955 c 6.49143,-1.06306 6.51547,-4.395029 0.0752,-10.419606 -3.81434,-3.568126 -10.70308,-7.166977 -15.61189,-8.15604 -3.84198,-0.774112 -6.70423,-0.203587 -11.82491,2.357027 -4.72916,2.364837 -8.37449,5.156571 -10.89213,8.341622 -4.23486,5.357507 -3.62763,6.864977 3.16398,7.854647 3.88949,0.56677 31.65732,0.58446 35.08977,0.0224 z"
         id="path8684"
         inkscape:connector-curvature="0"
         transform="matrix(0.9375,0,0,0.9375,-15.990915,268.05608)" />
      <path
         style="fill:#ffff00;fill-opacity:1;stroke-width:0.5"
         d="m 82.308949,129.35333 c -2.593266,-1.12919 -3.630613,-4.43293 -4.722583,-15.04051 -0.730574,-7.09693 -1.282945,-9.24548 -2.382169,-9.2659 -0.798373,-0.0148 -0.797081,-0.0604 0.01927,-0.68012 0.765431,-0.58105 0.873517,-1.59648 0.863159,-8.109103 -0.0065,-4.094683 -0.215762,-10.032378 -0.464998,-13.194878 -0.249236,-3.1625 -0.61243,-7.814552 -0.807097,-10.337893 l -0.353941,-4.587893 1.943938,0.450965 c 2.642166,0.612942 11.724916,0.583936 15.631309,-0.04992 1.753054,-0.284453 3.28555,-0.419007 3.405547,-0.29901 0.119997,0.119998 -0.133069,5.73955 -0.56237,12.487894 -0.968105,15.218007 -1.022357,23.171918 -0.160012,23.459368 0.446185,0.14873 0.375943,0.45144 -0.25,1.07738 -0.478794,0.4788 -0.873685,1.02322 -0.877534,1.20982 -0.0038,0.18661 -0.438054,4.08158 -0.964897,8.6555 -1.33341,11.57629 -1.913225,13.34456 -4.726402,14.41413 -1.818208,0.69128 -3.715608,0.62686 -5.591222,-0.18983 z"
         id="path8686"
         inkscape:connector-curvature="0"
         transform="matrix(0.9375,0,0,0.9375,-15.990915,268.05608)" />
      <path
         style="fill:#ffdb00;fill-opacity:1;stroke-width:0.5"
         d="m 102.34847,164.39141 c -7.041292,-1.8287 -9.577022,-5.39901 -9.144238,-12.8751 0.308301,-5.32572 1.952601,-8.06201 6.126926,-10.19583 2.894652,-1.47968 3.089192,-1.50766 10.483342,-1.50766 9.04522,0 9.89846,0.32085 12.45545,4.68368 2.39268,4.08249 2.52224,4.7298 1.6469,8.22844 -0.42492,1.69833 -0.89863,3.7025 -1.0527,4.45371 -0.42126,2.05396 -3.00231,4.68176 -6.07505,6.18512 -2.23813,1.09501 -3.58483,1.37184 -7.3408,1.50897 -2.72072,0.0993 -5.62112,-0.0973 -7.09983,-0.48133 z"
         id="path8688"
         inkscape:connector-curvature="0"
         transform="matrix(0.9375,0,0,0.9375,-15.990915,268.05608)" />
      <path
         style="fill:#ffdb00;fill-opacity:1;stroke-width:0.5"
         d="m 104.03003,164.57791 c -7.74706,-1.0201 -11.504682,-5.71487 -10.7217,-13.39567 0.553822,-5.43282 2.012683,-7.67834 6.463673,-9.94906 2.332027,-1.18971 2.732017,-1.23043 10.593577,-1.07838 l 8.17003,0.15802 1.47177,1.41139 c 2.0335,1.95007 4.19386,6.0864 4.17736,7.99814 -0.0246,2.8525 -1.63513,8.55391 -2.8771,10.18536 -2.74874,3.61076 -10.14351,5.6096 -17.27761,4.6702 z"
         id="path8690"
         inkscape:connector-curvature="0"
         transform="matrix(0.9375,0,0,0.9375,-15.990915,268.05608)" />
      <path
         style="fill:#ffba00;fill-opacity:1;stroke-width:0.5"
         d="m 103.16434,164.55629 c -8.282804,-1.7502 -11.434803,-7.06114 -9.511948,-16.02711 0.670384,-3.12589 3.00092,-5.91196 6.205288,-7.41819 1.97304,-0.92744 3.14999,-1.04817 10.21794,-1.04817 h 7.98805 l 1.6692,1.46557 c 2.15041,1.88809 4.46946,6.15645 4.45187,8.19396 -0.0246,2.8525 -1.63513,8.55391 -2.8771,10.18536 -0.66777,0.87719 -2.61926,2.28175 -4.33665,3.12125 -2.51497,1.22938 -3.94945,1.57136 -7.37252,1.75761 -2.3375,0.12718 -5.23286,0.0236 -6.43413,-0.23028 z"
         id="path8692"
         inkscape:connector-curvature="0"
         transform="matrix(0.9375,0,0,0.9375,-15.990915,268.05608)" />
      <path
         style="fill:#ffba00;fill-opacity:1;stroke-width:0.5"
         d="m 102.17504,164.36461 c -3.230021,-0.82207 -6.43651,-2.97989 -7.737005,-5.20664 -1.224308,-2.09631 -1.647002,-7.22938 -0.86407,-10.49301 0.750472,-3.12832 3.231697,-6.11935 6.255383,-7.54065 2.014642,-0.947 3.142412,-1.06149 10.455492,-1.06149 h 8.19727 l 1.78652,1.97747 c 3.06551,3.39315 4.0015,5.76177 3.65546,9.25049 -0.66442,6.69855 -2.19554,9.30618 -6.84375,11.65552 -2.74225,1.38601 -3.91361,1.66872 -7.73187,1.8661 -2.89669,0.14974 -5.45253,-0.01 -7.17343,-0.44779 z"
         id="path8694"
         inkscape:connector-curvature="0"
         transform="matrix(0.9375,0,0,0.9375,-15.990915,268.05608)" />
      <path
         style="fill:#ffba00;fill-opacity:1;stroke-width:0.5"
         d="m 82.034075,128.80858 c -2.231893,-1.21273 -2.670594,-2.8531 -4.679045,-17.49576 -0.509972,-3.71796 -1.007453,-5.68695 -1.535403,-6.077 -0.505603,-0.37354 -0.594139,-0.69249 -0.251079,-0.90451 1.007878,-0.6229 0.559486,-22.36616 -0.691222,-33.518491 l -0.224296,-2 h 10.292876 10.292876 l -0.356608,6 c -0.196134,3.3 -0.459336,11.460219 -0.584894,18.13382 -0.125558,6.673601 -0.429241,12.636101 -0.674852,13.250001 -0.245611,0.6139 -0.82576,4.58836 -1.289221,8.83213 -1.343489,12.30193 -2.382778,14.55196 -6.704019,14.51403 -1.254396,-0.011 -2.872196,-0.34141 -3.595113,-0.73422 z"
         id="path8696"
         inkscape:connector-curvature="0"
         transform="matrix(0.9375,0,0,0.9375,-15.990915,268.05608)" />
    </g>
  </g>
</svg>
