<?xml version="1.0" encoding="UTF-8" standalone="no"?>
<svg
   xmlns:dc="http://purl.org/dc/elements/1.1/"
   xmlns:cc="http://creativecommons.org/ns#"
   xmlns:rdf="http://www.w3.org/1999/02/22-rdf-syntax-ns#"
   xmlns:svg="http://www.w3.org/2000/svg"
   xmlns="http://www.w3.org/2000/svg"
   xmlns:sodipodi="http://sodipodi.sourceforge.net/DTD/sodipodi-0.dtd"
   xmlns:inkscape="http://www.inkscape.org/namespaces/inkscape"
   version="1.0"
   width="451.000000pt"
   height="57.000000pt"
   viewBox="0 0 451.000000 57.000000"
   preserveAspectRatio="xMidYMid meet"
   id="svg4507"
   sodipodi:docname="system.svg"
   inkscape:version="0.92.1 r15371">
  <metadata
     id="metadata4513">
    <rdf:RDF>
      <cc:Work
         rdf:about="">
        <dc:format>image/svg+xml</dc:format>
        <dc:type
           rdf:resource="http://purl.org/dc/dcmitype/StillImage" />
      </cc:Work>
    </rdf:RDF>
  </metadata>
  <defs
     id="defs4511" />
  <sodipodi:namedview
     pagecolor="#ffffff"
     bordercolor="#666666"
     borderopacity="1"
     objecttolerance="10"
     gridtolerance="10"
     guidetolerance="10"
     inkscape:pageopacity="0"
     inkscape:pageshadow="2"
     inkscape:window-width="1680"
     inkscape:window-height="988"
     id="namedview4509"
     showgrid="false"
     inkscape:zoom="1.9955654"
     inkscape:cx="300.66667"
     inkscape:cy="38"
     inkscape:window-x="-8"
     inkscape:window-y="-8"
     inkscape:window-maximized="1"
     inkscape:current-layer="g4505" />
  <g
     transform="translate(0.000000,57.000000) scale(0.100000,-0.100000)"
     fill="#000000"
     stroke="none"
     id="g4505">
    <path
       d="M50 250 l0 -190 185 0 185 0 0 45 0 45 -95 0 -95 0 0 145 0 145 -90 0 -90 0 0 -190z"
       id="path4485"
       style="fill:#000000" />
    <path
       d="M582 413 c-27 -66 -122 -336 -122 -344 0 -5 23 -9 51 -9 42 0 52 3 56 20 5 17 14 20 68 20 55 0 65 -3 70 -20 6 -18 15 -20 95 -20 l90 0 -44 122 c-24 68 -55 152 -68 188 l-23 65 -81 3 c-81 3 -81 3 -92 -25z m78 -214 c0 -5 -11 -9 -25 -9 -28 0 -29 4 -14 50 l12 32 13 -32 c8 -18 14 -36 14 -41z"
       id="path4487"
       style="fill:#000000" />
    <path
       d="M931 414 c-28 -35 -29 -126 -3 -152 10 -10 61 -27 120 -41 94 -21 103 -24 100 -44 -4 -31 -47 -36 -55 -8 -5 19 -13 21 -95 21 l-91 0 6 -47 c8 -78 21 -83 207 -83 144 0 160 2 184 21 24 18 26 27 26 89 0 42 -5 71 -12 78 -7 5 -60 20 -117 33 -106 23 -127 37 -98 66 20 20 47 10 47 -17 0 -19 6 -20 90 -20 l90 0 0 45 c0 32 -6 51 -20 65 -18 18 -33 20 -189 20 l-170 0 -20 -26z"
       id="path4489"
       style="fill:#000000" />
    <path
       d="M1350 400 l0 -40 50 0 50 0 0 -150 0 -150 90 0 90 0 0 150 0 150 45 0 45 0 0 40 0 40 -185 0 -185 0 0 -40z"
       id="path4491"
       style="fill:#000000" />
    <path
       d="M1870 250 l0 -190 90 0 90 0 0 75 0 75 100 0 c130 0 140 8 140 115 0 116 3 115 -230 115 l-190 0 0 -190z m224 104 c9 -3 16 -16 16 -29 0 -22 -17 -35 -46 -35 -9 0 -14 11 -14 35 0 36 10 42 44 29z"
       id="path4493"
       style="fill:#ff0000" />
    <path
       d="M2310 250 l0 -190 185 0 185 0 0 45 0 45 -95 0 -95 0 0 145 0 145 -90 0 -90 0 0 -190z"
       id="path4495"
       style="fill:#ff0000" />
    <path
       d="M2842 413 c-27 -66 -122 -336 -122 -344 0 -5 23 -9 51 -9 42 0 52 3 56 20 5 17 14 20 68 20 55 0 65 -3 70 -20 6 -18 15 -20 95 -20 l90 0 -44 122 c-24 68 -55 152 -68 188 l-23 65 -81 3 c-81 3 -81 3 -92 -25z m78 -214 c0 -5 -11 -9 -25 -9 -28 0 -29 4 -14 50 l12 32 13 -32 c8 -18 14 -36 14 -41z"
       id="path4497"
       style="fill:#ff0000" />
    <path
       d="M3186 428 c4 -7 34 -52 66 -100 l58 -87 0 -91 0 -90 90 0 90 0 0 108 0 107 55 83 55 82 -59 0 -59 0 -32 -50 c-18 -27 -36 -48 -40 -45 -5 3 -21 25 -37 50 l-28 45 -83 0 c-64 0 -81 -3 -76 -12z"
       id="path4499"
       style="fill:#ff0000" />
    <path
       d="M3630 250 l0 -190 185 0 185 0 0 45 0 45 -95 0 -95 0 0 35 0 35 95 0 95 0 0 45 0 45 -95 0 c-95 0 -95 0 -95 25 0 25 0 25 95 25 l95 0 0 40 0 40 -185 0 -185 0 0 -190z"
       id="path4501"
       style="fill:#ff0000" />
    <path
       d="M4030 250 l0 -190 184 0 c170 0 185 1 210 21 l26 20 0 150 c0 202 16 189 -230 189 l-190 0 0 -190z m228 102 c9 -6 12 -34 10 -103 l-3 -94 -27 -3 -28 -3 0 105 c0 94 2 106 18 106 9 0 23 -4 30 -8z"
       id="path4503"
       style="fill:#ff0000" />
  </g>
</svg>
