<?xml version="1.0" encoding="UTF-8" standalone="no"?>
<svg
   xmlns:dc="http://purl.org/dc/elements/1.1/"
   xmlns:cc="http://creativecommons.org/ns#"
   xmlns:rdf="http://www.w3.org/1999/02/22-rdf-syntax-ns#"
   xmlns:svg="http://www.w3.org/2000/svg"
   xmlns="http://www.w3.org/2000/svg"
   xmlns:sodipodi="http://sodipodi.sourceforge.net/DTD/sodipodi-0.dtd"
   xmlns:inkscape="http://www.inkscape.org/namespaces/inkscape"
   version="1.0"
   width="369.000000pt"
   height="52.000000pt"
   viewBox="0 0 369.000000 52.000000"
   preserveAspectRatio="xMidYMid meet"
   id="svg4503"
   sodipodi:docname="logo.svg"
   inkscape:version="0.92.1 r15371">
  <metadata
     id="metadata4509">
    <rdf:RDF>
      <cc:Work
         rdf:about="">
        <dc:format>image/svg+xml</dc:format>
        <dc:type
           rdf:resource="http://purl.org/dc/dcmitype/StillImage" />
        <dc:title></dc:title>
      </cc:Work>
    </rdf:RDF>
  </metadata>
  <defs
     id="defs4507" />
  <sodipodi:namedview
     pagecolor="#ffffff"
     bordercolor="#666666"
     borderopacity="1"
     objecttolerance="10"
     gridtolerance="10"
     guidetolerance="10"
     inkscape:pageopacity="0"
     inkscape:pageshadow="2"
     inkscape:window-width="1680"
     inkscape:window-height="988"
     id="namedview4505"
     showgrid="false"
     inkscape:zoom="2.4390244"
     inkscape:cx="246"
     inkscape:cy="34.666667"
     inkscape:window-x="-8"
     inkscape:window-y="-8"
     inkscape:window-maximized="1"
     inkscape:current-layer="svg4503" />
  <g
     transform="translate(0.000000,52.000000) scale(0.100000,-0.100000)"
     fill="#000000"
     stroke="none"
     id="g4501"
     style="fill:#ffffff">
    <path
       d="M172 423 c-27 -66 -122 -336 -122 -344 0 -5 23 -9 51 -9 42 0 52 3 56 20 5 17 14 20 68 20 55 0 65 -3 70 -20 6 -18 15 -20 90 -20 l84 0 -14 41 c-8 23 -15 49 -15 58 0 9 -22 74 -48 146 l-48 130 -80 3 c-81 3 -81 3 -92 -25z m78 -214 c0 -5 -11 -9 -25 -9 -28 0 -29 4 -14 50 l12 32 13 -32 c8 -18 14 -36 14 -41z"
       id="path4485"
       style="fill:#ffffff" />
    <path
       d="M490 260 l0 -190 185 0 185 0 0 45 0 45 -95 0 -95 0 0 145 0 145 -90 0 -90 0 0 -190z"
       id="path4487"
       style="fill:#ffffff" />
    <path
       d="M890 260 l0 -190 185 0 185 0 0 45 0 45 -95 0 -95 0 0 145 0 145 -90 0 -90 0 0 -190z"
       id="path4489"
       style="fill:#ffffff" />
    <path
       d="M1420 423 c-20 -26 -21 -37 -18 -171 4 -190 -6 -182 208 -182 144 0 160 2 184 21 24 19 26 26 26 95 l0 74 -105 0 -105 0 0 -30 c0 -21 5 -30 16 -30 9 0 14 -7 12 -17 -2 -12 -12 -18 -28 -18 -25 0 -25 2 -28 91 -2 69 1 94 11 103 19 15 47 4 47 -20 0 -17 8 -19 90 -19 l90 0 0 45 c0 32 -6 51 -20 65 -18 18 -33 20 -189 20 l-170 0 -21 -27z"
       id="path4491"
       style="fill:#ffffff" />
    <path
       d="M1972 423 c-27 -66 -122 -336 -122 -344 0 -5 23 -9 51 -9 42 0 52 3 56 20 5 17 14 20 68 20 55 0 65 -3 70 -20 6 -18 15 -20 95 -20 l90 0 -44 122 c-24 68 -55 152 -68 188 l-23 65 -81 3 c-81 3 -81 3 -92 -25z m78 -214 c0 -5 -11 -9 -25 -9 -28 0 -29 4 -14 50 l12 32 13 -32 c8 -18 14 -36 14 -41z"
       id="path4493"
       style="fill:#ffffff" />
    <path
       d="M2300 260 l0 -190 85 0 84 0 3 111 3 112 39 -58 40 -57 18 24 c10 12 26 35 35 51 10 15 21 27 25 27 4 0 8 -47 8 -105 l0 -105 90 0 90 0 0 190 0 190 -93 0 -92 0 -38 -60 c-21 -34 -41 -59 -46 -56 -4 3 -23 30 -42 61 l-33 55 -88 0 -88 0 0 -190z"
       id="path4495"
       style="fill:#ffffff" />
    <path
       d="M2840 260 l0 -190 185 0 185 0 0 45 0 45 -95 0 -95 0 0 35 0 35 95 0 95 0 0 45 0 45 -95 0 c-95 0 -95 0 -95 25 0 25 0 25 95 25 l95 0 0 40 0 40 -185 0 -185 0 0 -190z"
       id="path4497"
       style="fill:#ffffff" />
    <path
       d="M3251 424 c-28 -35 -29 -126 -3 -152 10 -10 61 -27 120 -41 94 -21 103 -24 100 -44 -4 -31 -47 -36 -55 -8 -5 19 -13 21 -95 21 l-91 0 6 -47 c8 -78 21 -83 207 -83 144 0 160 2 184 21 24 18 26 27 26 89 0 42 -5 71 -12 78 -7 5 -60 20 -117 33 -106 23 -127 37 -98 66 20 20 47 10 47 -17 0 -19 6 -20 90 -20 l90 0 0 45 c0 32 -6 51 -20 65 -18 18 -33 20 -189 20 l-170 0 -20 -26z"
       id="path4499"
       style="fill:#ffffff" />
  </g>
</svg>
